<mxfile host="drawio-plugin" modified="2023-10-10T13:35:06.998Z" agent="5.0 (X11; Linux x86_64) AppleWebKit/537.36 (KHTML, like Gecko) Chrome/111.0.0.0 Safari/537.36" version="20.5.3" etag="4v3Gt8fhnM3ASNhn48vU" type="embed"><diagram id="Nk7297TPdOuf1w1uHbyL" name="Page-1"><mxGraphModel dx="853" dy="335" grid="1" gridSize="10" guides="1" tooltips="1" connect="1" arrows="1" fold="1" page="1" pageScale="1" pageWidth="827" pageHeight="1169" math="0" shadow="0"><root><mxCell id="0"/><mxCell id="1" parent="0"/><mxCell id="2" value="Application Web" style="shape=umlLifeline;perimeter=lifelinePerimeter;whiteSpace=wrap;html=1;container=0;dropTarget=0;collapsible=0;recursiveResize=0;outlineConnect=0;portConstraint=eastwest;newEdgeStyle={&quot;edgeStyle&quot;:&quot;elbowEdgeStyle&quot;,&quot;elbow&quot;:&quot;vertical&quot;,&quot;curved&quot;:0,&quot;rounded&quot;:0};fillColor=#f8cecc;strokeColor=#b85450;" vertex="1" parent="1"><mxGeometry x="220" y="40" width="100" height="300" as="geometry"/></mxCell><mxCell id="3" value="" style="html=1;points=[[0,0,0,0,5],[0,1,0,0,-5],[1,0,0,0,5],[1,1,0,0,-5]];perimeter=orthogonalPerimeter;outlineConnect=0;targetShapes=umlLifeline;portConstraint=eastwest;newEdgeStyle={&quot;curved&quot;:0,&quot;rounded&quot;:0};" vertex="1" parent="2"><mxGeometry x="45" y="100" width="10" height="40" as="geometry"/></mxCell><mxCell id="4" value="authentification" style="html=1;align=left;spacingLeft=2;endArrow=block;rounded=0;edgeStyle=orthogonalEdgeStyle;curved=0;rounded=0;" edge="1" parent="2" target="3"><mxGeometry relative="1" as="geometry"><mxPoint x="45" y="80" as="sourcePoint"/><Array as="points"><mxPoint x="75" y="80"/><mxPoint x="75" y="120"/></Array></mxGeometry></mxCell><mxCell id="5" value="se connecte" style="html=1;verticalAlign=bottom;endArrow=block;edgeStyle=elbowEdgeStyle;elbow=vertical;curved=0;rounded=0;" edge="1" parent="1"><mxGeometry x="0.0017" relative="1" as="geometry"><mxPoint x="89.92857142857144" y="120" as="sourcePoint"/><Array as="points"><mxPoint x="180" y="120"/></Array><mxPoint x="265" y="120" as="targetPoint"/><mxPoint as="offset"/></mxGeometry></mxCell><mxCell id="6" value="return" style="html=1;verticalAlign=bottom;endArrow=open;dashed=1;endSize=8;edgeStyle=elbowEdgeStyle;elbow=vertical;curved=0;rounded=0;" edge="1" parent="1"><mxGeometry relative="1" as="geometry"><mxPoint x="89.92857142857144" y="280" as="targetPoint"/><Array as="points"><mxPoint x="190" y="280"/></Array><mxPoint x="265" y="280" as="sourcePoint"/></mxGeometry></mxCell><mxCell id="7" value="callback" style="html=1;verticalAlign=bottom;endArrow=block;edgeStyle=elbowEdgeStyle;elbow=vertical;curved=0;rounded=0;" edge="1" parent="1"><mxGeometry relative="1" as="geometry"><mxPoint x="265" y="200" as="sourcePoint"/><Array as="points"><mxPoint x="190" y="200"/></Array><mxPoint x="89.92857142857144" y="200" as="targetPoint"/></mxGeometry></mxCell><mxCell id="8" value="return" style="html=1;verticalAlign=bottom;endArrow=open;dashed=1;endSize=8;edgeStyle=elbowEdgeStyle;elbow=vertical;curved=0;rounded=0;" edge="1" parent="1"><mxGeometry relative="1" as="geometry"><mxPoint x="265" y="240" as="targetPoint"/><Array as="points"><mxPoint x="180" y="240"/></Array><mxPoint x="89.92857142857144" y="240" as="sourcePoint"/></mxGeometry></mxCell><mxCell id="9" value="Base de données" style="shape=umlLifeline;perimeter=lifelinePerimeter;whiteSpace=wrap;html=1;container=0;dropTarget=0;collapsible=0;recursiveResize=0;outlineConnect=0;portConstraint=eastwest;newEdgeStyle={&quot;edgeStyle&quot;:&quot;elbowEdgeStyle&quot;,&quot;elbow&quot;:&quot;vertical&quot;,&quot;curved&quot;:0,&quot;rounded&quot;:0};fillColor=#d5e8d4;strokeColor=#82b366;" vertex="1" parent="1"><mxGeometry x="420" y="40" width="100" height="300" as="geometry"/></mxCell><mxCell id="10" value="&lt;font color=&quot;#66b2ff&quot;&gt;Utilisateur&lt;/font&gt;" style="shape=umlActor;verticalLabelPosition=bottom;verticalAlign=top;html=1;outlineConnect=0;fillColor=#dae8fc;strokeColor=#6c8ebf;" vertex="1" parent="1"><mxGeometry x="70" y="30" width="30" height="60" as="geometry"/></mxCell><mxCell id="11" value="" style="endArrow=none;dashed=1;html=1;rounded=0;fillColor=#dae8fc;strokeColor=#6c8ebf;" edge="1" parent="1"><mxGeometry width="50" height="50" relative="1" as="geometry"><mxPoint x="90" y="340" as="sourcePoint"/><mxPoint x="90" y="110" as="targetPoint"/></mxGeometry></mxCell></root></mxGraphModel></diagram></mxfile>